# xmcd CD database file
#
# Track frame offsets:
#	150
#	9695
#	19242
#	30201
#	39738
#	49270
#	60225
#	62926
#
# Disc length: 873 seconds
#
# Revision: 0
# Processed by: cddbd v1.5.1PL0 Copyright (c) Steve Scherf et al.
# Submitted via: CD2WAV32(EN) R3.19
#
DISCID=61036708
DTITLE=ryuuiti - ryuuitikouka
DYEAR=1900
DGENRE=
TTITLE0=kouka
TTITLE1=ouennka
TTITLE2=sirahatadaini
TTITLE3=kouka
TTITLE4=ouennka
TTITLE5=sirahatadaini
TTITLE6=kouka 1
TTITLE7=kouka 1
EXTD=
EXTT0=
EXTT1=
EXTT2=
EXTT3=
EXTT4=
EXTT5=
EXTT6=
EXTT7=
PLAYORDER=
